<svg width="83" height="10" viewBox="0 0 83 10" fill="none" xmlns="http://www.w3.org/2000/svg">
<path d="M5.304 9H1.26C1.108 9 0.996 8.968 0.924 8.904C0.86 8.832 0.828 8.72 0.828 8.568V0.792C0.828 0.64 0.86 0.532 0.924 0.468C0.996 0.396 1.108 0.36 1.26 0.36H5.304C6.304 0.36 7.044 0.56 7.524 0.96C8.012 1.36 8.256 1.976 8.256 2.808V6.552C8.256 7.384 8.012 8 7.524 8.4C7.044 8.8 6.304 9 5.304 9ZM3.552 2.652V6.732H4.98C5.172 6.732 5.312 6.684 5.4 6.588C5.496 6.492 5.544 6.344 5.544 6.144V3.228C5.544 3.028 5.496 2.884 5.4 2.796C5.312 2.7 5.172 2.652 4.98 2.652H3.552ZM15.7811 9H10.2131C10.0611 9 9.94913 8.968 9.87713 8.904C9.81313 8.832 9.78113 8.72 9.78113 8.568V0.792C9.78113 0.64 9.81313 0.532 9.87713 0.468C9.94913 0.396 10.0611 0.36 10.2131 0.36H15.7811C15.9331 0.36 16.0411 0.396 16.1051 0.468C16.1771 0.532 16.2131 0.64 16.2131 0.792V2.196C16.2131 2.348 16.1771 2.46 16.1051 2.532C16.0411 2.596 15.9331 2.628 15.7811 2.628H12.4691V3.552H14.8091C14.9611 3.552 15.0691 3.588 15.1331 3.66C15.2051 3.724 15.2411 3.832 15.2411 3.984V5.268C15.2411 5.42 15.2051 5.532 15.1331 5.604C15.0691 5.668 14.9611 5.7 14.8091 5.7H12.4691V6.732H15.7811C15.9331 6.732 16.0411 6.768 16.1051 6.84C16.1771 6.904 16.2131 7.012 16.2131 7.164V8.568C16.2131 8.72 16.1771 8.832 16.1051 8.904C16.0411 8.968 15.9331 9 15.7811 9ZM22.7447 9H19.6247C19.4727 9 19.3447 8.972 19.2407 8.916C19.1447 8.86 19.0687 8.756 19.0127 8.604L17.8367 5.664C17.7647 5.488 17.7047 5.336 17.6567 5.208C17.6087 5.072 17.5687 4.944 17.5367 4.824C17.5047 4.704 17.4807 4.58 17.4647 4.452C17.4567 4.316 17.4527 4.152 17.4527 3.96V0.792C17.4527 0.64 17.4847 0.532 17.5487 0.468C17.6207 0.396 17.7327 0.36 17.8847 0.36H19.7927C19.9447 0.36 20.0607 0.396 20.1407 0.468C20.2207 0.532 20.2607 0.64 20.2607 0.792V4.104C20.2607 4.184 20.2687 4.264 20.2847 4.344C20.3007 4.424 20.3247 4.508 20.3567 4.596L20.9207 6.276C20.9447 6.356 20.9727 6.412 21.0047 6.444C21.0367 6.468 21.0847 6.48 21.1487 6.48H21.2807C21.3447 6.48 21.3927 6.468 21.4247 6.444C21.4567 6.412 21.4847 6.356 21.5087 6.276L22.0727 4.584C22.1047 4.496 22.1287 4.412 22.1447 4.332C22.1607 4.252 22.1687 4.172 22.1687 4.092V0.792C22.1687 0.64 22.2007 0.532 22.2647 0.468C22.3367 0.396 22.4487 0.36 22.6007 0.36H24.4847C24.6367 0.36 24.7447 0.396 24.8087 0.468C24.8807 0.532 24.9167 0.64 24.9167 0.792V3.96C24.9167 4.152 24.9087 4.316 24.8927 4.452C24.8847 4.58 24.8647 4.704 24.8327 4.824C24.8007 4.944 24.7607 5.072 24.7127 5.208C24.6647 5.336 24.6047 5.488 24.5327 5.664L23.3567 8.604C23.3007 8.756 23.2207 8.86 23.1167 8.916C23.0207 8.972 22.8967 9 22.7447 9ZM32.1463 9H29.2183C28.2183 9 27.4743 8.8 26.9863 8.4C26.5063 8 26.2663 7.384 26.2663 6.552V2.82C26.2663 1.988 26.5063 1.372 26.9863 0.972C27.4743 0.564 28.2183 0.36 29.2183 0.36H32.1463C32.2983 0.36 32.4063 0.396 32.4703 0.468C32.5423 0.532 32.5783 0.64 32.5783 0.792V2.244C32.5783 2.396 32.5423 2.508 32.4703 2.58C32.4063 2.644 32.2983 2.676 32.1463 2.676H29.7343C29.4863 2.676 29.3023 2.728 29.1823 2.832C29.0623 2.928 29.0023 3.076 29.0023 3.276V6.132C29.0023 6.332 29.0623 6.48 29.1823 6.576C29.3023 6.664 29.4863 6.708 29.7343 6.708H32.1463C32.2983 6.708 32.4063 6.744 32.4703 6.816C32.5423 6.88 32.5783 6.988 32.5783 7.14V8.568C32.5783 8.72 32.5423 8.832 32.4703 8.904C32.4063 8.968 32.2983 9 32.1463 9ZM41.1949 6.732C41.1949 7.1 41.1389 7.436 41.0269 7.74C40.9229 8.036 40.7309 8.292 40.4509 8.508C40.1789 8.716 39.7989 8.88 39.3109 9C38.8309 9.12 38.2189 9.18 37.4749 9.18C36.7309 9.18 36.1149 9.12 35.6269 9C35.1389 8.88 34.7549 8.716 34.4749 8.508C34.2029 8.292 34.0109 8.036 33.8989 7.74C33.7949 7.436 33.7429 7.1 33.7429 6.732V2.64C33.7429 2.272 33.7949 1.94 33.8989 1.644C34.0109 1.34 34.2029 1.08 34.4749 0.864C34.7549 0.648 35.1389 0.48 35.6269 0.36C36.1149 0.24 36.7309 0.18 37.4749 0.18C38.2189 0.18 38.8309 0.24 39.3109 0.36C39.7989 0.48 40.1789 0.648 40.4509 0.864C40.7309 1.08 40.9229 1.34 41.0269 1.644C41.1389 1.94 41.1949 2.272 41.1949 2.64V6.732ZM36.4669 6.3C36.4669 6.46 36.5269 6.596 36.6469 6.708C36.7669 6.812 37.0429 6.864 37.4749 6.864C37.9069 6.864 38.1829 6.812 38.3029 6.708C38.4229 6.596 38.4829 6.46 38.4829 6.3V3.072C38.4829 2.92 38.4229 2.792 38.3029 2.688C38.1829 2.576 37.9069 2.52 37.4749 2.52C37.0429 2.52 36.7669 2.576 36.6469 2.688C36.5269 2.792 36.4669 2.92 36.4669 3.072V6.3ZM44.9545 9H43.1545C43.0025 9 42.8905 8.968 42.8185 8.904C42.7545 8.832 42.7225 8.72 42.7225 8.568V0.792C42.7225 0.64 42.7545 0.532 42.8185 0.468C42.8905 0.396 43.0025 0.36 43.1545 0.36H44.4025C44.5545 0.36 44.6825 0.384 44.7865 0.431999C44.8985 0.48 45.0065 0.564 45.1105 0.684L47.4385 3.348V0.792C47.4385 0.64 47.4705 0.532 47.5345 0.468C47.6065 0.396 47.7185 0.36 47.8705 0.36H49.6705C49.8225 0.36 49.9305 0.396 49.9945 0.468C50.0665 0.532 50.1025 0.64 50.1025 0.792V8.568C50.1025 8.72 50.0665 8.832 49.9945 8.904C49.9305 8.968 49.8225 9 49.6705 9H47.8705C47.7185 9 47.6065 8.968 47.5345 8.904C47.4705 8.832 47.4385 8.72 47.4385 8.568V7.092L45.3865 4.608V8.568C45.3865 8.72 45.3505 8.832 45.2785 8.904C45.2145 8.968 45.1065 9 44.9545 9ZM53.9897 9H52.1897C52.0377 9 51.9257 8.968 51.8537 8.904C51.7897 8.832 51.7577 8.72 51.7577 8.568V0.792C51.7577 0.64 51.7897 0.532 51.8537 0.468C51.9257 0.396 52.0377 0.36 52.1897 0.36H53.4377C53.5897 0.36 53.7177 0.384 53.8217 0.431999C53.9337 0.48 54.0417 0.564 54.1457 0.684L56.4737 3.348V0.792C56.4737 0.64 56.5057 0.532 56.5697 0.468C56.6417 0.396 56.7537 0.36 56.9057 0.36H58.7057C58.8577 0.36 58.9657 0.396 59.0297 0.468C59.1017 0.532 59.1377 0.64 59.1377 0.792V8.568C59.1377 8.72 59.1017 8.832 59.0297 8.904C58.9657 8.968 58.8577 9 58.7057 9H56.9057C56.7537 9 56.6417 8.968 56.5697 8.904C56.5057 8.832 56.4737 8.72 56.4737 8.568V7.092L54.4217 4.608V8.568C54.4217 8.72 54.3857 8.832 54.3137 8.904C54.2497 8.968 54.1417 9 53.9897 9ZM66.7928 9H61.2248C61.0728 9 60.9608 8.968 60.8888 8.904C60.8248 8.832 60.7928 8.72 60.7928 8.568V0.792C60.7928 0.64 60.8248 0.532 60.8888 0.468C60.9608 0.396 61.0728 0.36 61.2248 0.36H66.7928C66.9448 0.36 67.0528 0.396 67.1168 0.468C67.1888 0.532 67.2248 0.64 67.2248 0.792V2.196C67.2248 2.348 67.1888 2.46 67.1168 2.532C67.0528 2.596 66.9448 2.628 66.7928 2.628H63.4808V3.552H65.8208C65.9728 3.552 66.0808 3.588 66.1448 3.66C66.2168 3.724 66.2528 3.832 66.2528 3.984V5.268C66.2528 5.42 66.2168 5.532 66.1448 5.604C66.0808 5.668 65.9728 5.7 65.8208 5.7H63.4808V6.732H66.7928C66.9448 6.732 67.0528 6.768 67.1168 6.84C67.1888 6.904 67.2248 7.012 67.2248 7.164V8.568C67.2248 8.72 67.1888 8.832 67.1168 8.904C67.0528 8.968 66.9448 9 66.7928 9ZM74.3338 9H71.4058C70.4058 9 69.6618 8.8 69.1738 8.4C68.6938 8 68.4538 7.384 68.4538 6.552V2.82C68.4538 1.988 68.6938 1.372 69.1738 0.972C69.6618 0.564 70.4058 0.36 71.4058 0.36H74.3338C74.4858 0.36 74.5938 0.396 74.6578 0.468C74.7298 0.532 74.7658 0.64 74.7658 0.792V2.244C74.7658 2.396 74.7298 2.508 74.6578 2.58C74.5938 2.644 74.4858 2.676 74.3338 2.676H71.9218C71.6738 2.676 71.4898 2.728 71.3698 2.832C71.2498 2.928 71.1898 3.076 71.1898 3.276V6.132C71.1898 6.332 71.2498 6.48 71.3698 6.576C71.4898 6.664 71.6738 6.708 71.9218 6.708H74.3338C74.4858 6.708 74.5938 6.744 74.6578 6.816C74.7298 6.88 74.7658 6.988 74.7658 7.14V8.568C74.7658 8.72 74.7298 8.832 74.6578 8.904C74.5938 8.968 74.4858 9 74.3338 9ZM80.201 9H78.257C78.105 9 77.993 8.968 77.921 8.904C77.857 8.832 77.825 8.72 77.825 8.568V2.676H76.061C75.909 2.676 75.797 2.644 75.725 2.58C75.661 2.508 75.629 2.396 75.629 2.244V0.792C75.629 0.64 75.661 0.532 75.725 0.468C75.797 0.396 75.909 0.36 76.061 0.36H82.397C82.549 0.36 82.657 0.396 82.721 0.468C82.793 0.532 82.829 0.64 82.829 0.792V2.244C82.829 2.396 82.793 2.508 82.721 2.58C82.657 2.644 82.549 2.676 82.397 2.676H80.633V8.568C80.633 8.72 80.597 8.832 80.525 8.904C80.461 8.968 80.353 9 80.201 9Z" fill="white"/>
</svg>
