<svg width="138" height="16" viewBox="0 0 138 16" fill="none" xmlns="http://www.w3.org/2000/svg">
<path d="M7.84 15H1.1C0.846667 15 0.66 14.9467 0.54 14.84C0.433333 14.72 0.38 14.5333 0.38 14.28V1.32C0.38 1.06667 0.433333 0.886666 0.54 0.779999C0.66 0.659999 0.846667 0.599999 1.1 0.599999H7.84C9.50667 0.599999 10.74 0.933333 11.54 1.6C12.3533 2.26667 12.76 3.29333 12.76 4.68V10.92C12.76 12.3067 12.3533 13.3333 11.54 14C10.74 14.6667 9.50667 15 7.84 15ZM4.92 4.42V11.22H7.3C7.62 11.22 7.85333 11.14 8 10.98C8.16 10.82 8.24 10.5733 8.24 10.24V5.38C8.24 5.04667 8.16 4.80667 8 4.66C7.85333 4.5 7.62 4.42 7.3 4.42H4.92ZM25.3019 15H16.0219C15.7685 15 15.5819 14.9467 15.4619 14.84C15.3552 14.72 15.3019 14.5333 15.3019 14.28V1.32C15.3019 1.06667 15.3552 0.886666 15.4619 0.779999C15.5819 0.659999 15.7685 0.599999 16.0219 0.599999H25.3019C25.5552 0.599999 25.7352 0.659999 25.8419 0.779999C25.9619 0.886666 26.0219 1.06667 26.0219 1.32V3.66C26.0219 3.91333 25.9619 4.1 25.8419 4.22C25.7352 4.32667 25.5552 4.38 25.3019 4.38H19.7819V5.92H23.6819C23.9352 5.92 24.1152 5.98 24.2219 6.1C24.3419 6.20667 24.4019 6.38667 24.4019 6.64V8.78C24.4019 9.03333 24.3419 9.22 24.2219 9.34C24.1152 9.44667 23.9352 9.5 23.6819 9.5H19.7819V11.22H25.3019C25.5552 11.22 25.7352 11.28 25.8419 11.4C25.9619 11.5067 26.0219 11.6867 26.0219 11.94V14.28C26.0219 14.5333 25.9619 14.72 25.8419 14.84C25.7352 14.9467 25.5552 15 25.3019 15ZM36.9078 15H31.7078C31.4545 15 31.2411 14.9533 31.0678 14.86C30.9078 14.7667 30.7811 14.5933 30.6878 14.34L28.7278 9.44C28.6078 9.14667 28.5078 8.89333 28.4278 8.68C28.3478 8.45333 28.2811 8.24 28.2278 8.04C28.1745 7.84 28.1345 7.63333 28.1078 7.42C28.0945 7.19333 28.0878 6.92 28.0878 6.6V1.32C28.0878 1.06667 28.1411 0.886666 28.2478 0.779999C28.3678 0.659999 28.5545 0.599999 28.8078 0.599999H31.9878C32.2411 0.599999 32.4345 0.659999 32.5678 0.779999C32.7011 0.886666 32.7678 1.06667 32.7678 1.32V6.84C32.7678 6.97333 32.7811 7.10667 32.8078 7.24C32.8345 7.37333 32.8745 7.51333 32.9278 7.66L33.8678 10.46C33.9078 10.5933 33.9545 10.6867 34.0078 10.74C34.0611 10.78 34.1411 10.8 34.2478 10.8H34.4678C34.5745 10.8 34.6545 10.78 34.7078 10.74C34.7611 10.6867 34.8078 10.5933 34.8478 10.46L35.7878 7.64C35.8411 7.49333 35.8811 7.35333 35.9078 7.22C35.9345 7.08667 35.9478 6.95333 35.9478 6.82V1.32C35.9478 1.06667 36.0011 0.886666 36.1078 0.779999C36.2278 0.659999 36.4145 0.599999 36.6678 0.599999H39.8078C40.0611 0.599999 40.2411 0.659999 40.3478 0.779999C40.4678 0.886666 40.5278 1.06667 40.5278 1.32V6.6C40.5278 6.92 40.5145 7.19333 40.4878 7.42C40.4745 7.63333 40.4411 7.84 40.3878 8.04C40.3345 8.24 40.2678 8.45333 40.1878 8.68C40.1078 8.89333 40.0078 9.14667 39.8878 9.44L37.9278 14.34C37.8345 14.5933 37.7011 14.7667 37.5278 14.86C37.3678 14.9533 37.1611 15 36.9078 15ZM52.5772 15H47.6972C46.0305 15 44.7905 14.6667 43.9772 14C43.1772 13.3333 42.7772 12.3067 42.7772 10.92V4.7C42.7772 3.31333 43.1772 2.28667 43.9772 1.62C44.7905 0.939999 46.0305 0.599999 47.6972 0.599999H52.5772C52.8305 0.599999 53.0105 0.659999 53.1172 0.779999C53.2372 0.886666 53.2972 1.06667 53.2972 1.32V3.74C53.2972 3.99333 53.2372 4.18 53.1172 4.3C53.0105 4.40667 52.8305 4.46 52.5772 4.46H48.5572C48.1439 4.46 47.8372 4.54667 47.6372 4.72C47.4372 4.88 47.3372 5.12667 47.3372 5.46V10.22C47.3372 10.5533 47.4372 10.8 47.6372 10.96C47.8372 11.1067 48.1439 11.18 48.5572 11.18H52.5772C52.8305 11.18 53.0105 11.24 53.1172 11.36C53.2372 11.4667 53.2972 11.6467 53.2972 11.9V14.28C53.2972 14.5333 53.2372 14.72 53.1172 14.84C53.0105 14.9467 52.8305 15 52.5772 15ZM67.6581 11.22C67.6581 11.8333 67.5648 12.3933 67.3781 12.9C67.2048 13.3933 66.8848 13.82 66.4181 14.18C65.9648 14.5267 65.3315 14.8 64.5181 15C63.7181 15.2 62.6981 15.3 61.4581 15.3C60.2181 15.3 59.1915 15.2 58.3781 15C57.5648 14.8 56.9248 14.5267 56.4581 14.18C56.0048 13.82 55.6848 13.3933 55.4981 12.9C55.3248 12.3933 55.2381 11.8333 55.2381 11.22V4.4C55.2381 3.78667 55.3248 3.23333 55.4981 2.74C55.6848 2.23333 56.0048 1.8 56.4581 1.44C56.9248 1.08 57.5648 0.799999 58.3781 0.599999C59.1915 0.4 60.2181 0.3 61.4581 0.3C62.6981 0.3 63.7181 0.4 64.5181 0.599999C65.3315 0.799999 65.9648 1.08 66.4181 1.44C66.8848 1.8 67.2048 2.23333 67.3781 2.74C67.5648 3.23333 67.6581 3.78667 67.6581 4.4V11.22ZM59.7781 10.5C59.7781 10.7667 59.8781 10.9933 60.0781 11.18C60.2781 11.3533 60.7381 11.44 61.4581 11.44C62.1781 11.44 62.6381 11.3533 62.8381 11.18C63.0381 10.9933 63.1381 10.7667 63.1381 10.5V5.12C63.1381 4.86667 63.0381 4.65333 62.8381 4.48C62.6381 4.29333 62.1781 4.2 61.4581 4.2C60.7381 4.2 60.2781 4.29333 60.0781 4.48C59.8781 4.65333 59.7781 4.86667 59.7781 5.12V10.5ZM73.9242 15H70.9242C70.6709 15 70.4842 14.9467 70.3642 14.84C70.2576 14.72 70.2042 14.5333 70.2042 14.28V1.32C70.2042 1.06667 70.2576 0.886666 70.3642 0.779999C70.4842 0.659999 70.6709 0.599999 70.9242 0.599999H73.0042C73.2576 0.599999 73.4709 0.639999 73.6442 0.719999C73.8309 0.8 74.0109 0.94 74.1842 1.14L78.0642 5.58V1.32C78.0642 1.06667 78.1176 0.886666 78.2242 0.779999C78.3442 0.659999 78.5309 0.599999 78.7842 0.599999H81.7842C82.0376 0.599999 82.2176 0.659999 82.3242 0.779999C82.4442 0.886666 82.5042 1.06667 82.5042 1.32V14.28C82.5042 14.5333 82.4442 14.72 82.3242 14.84C82.2176 14.9467 82.0376 15 81.7842 15H78.7842C78.5309 15 78.3442 14.9467 78.2242 14.84C78.1176 14.72 78.0642 14.5333 78.0642 14.28V11.82L74.6442 7.68V14.28C74.6442 14.5333 74.5842 14.72 74.4642 14.84C74.3576 14.9467 74.1776 15 73.9242 15ZM88.9828 15H85.9828C85.7295 15 85.5428 14.9467 85.4228 14.84C85.3161 14.72 85.2628 14.5333 85.2628 14.28V1.32C85.2628 1.06667 85.3161 0.886666 85.4228 0.779999C85.5428 0.659999 85.7295 0.599999 85.9828 0.599999H88.0628C88.3161 0.599999 88.5295 0.639999 88.7028 0.719999C88.8895 0.8 89.0695 0.94 89.2428 1.14L93.1228 5.58V1.32C93.1228 1.06667 93.1761 0.886666 93.2828 0.779999C93.4028 0.659999 93.5895 0.599999 93.8428 0.599999H96.8428C97.0961 0.599999 97.2761 0.659999 97.3828 0.779999C97.5028 0.886666 97.5628 1.06667 97.5628 1.32V14.28C97.5628 14.5333 97.5028 14.72 97.3828 14.84C97.2761 14.9467 97.0961 15 96.8428 15H93.8428C93.5895 15 93.4028 14.9467 93.2828 14.84C93.1761 14.72 93.1228 14.5333 93.1228 14.28V11.82L89.7028 7.68V14.28C89.7028 14.5333 89.6428 14.72 89.5228 14.84C89.4161 14.9467 89.2361 15 88.9828 15ZM110.321 15H101.041C100.788 15 100.601 14.9467 100.481 14.84C100.375 14.72 100.321 14.5333 100.321 14.28V1.32C100.321 1.06667 100.375 0.886666 100.481 0.779999C100.601 0.659999 100.788 0.599999 101.041 0.599999H110.321C110.575 0.599999 110.755 0.659999 110.861 0.779999C110.981 0.886666 111.041 1.06667 111.041 1.32V3.66C111.041 3.91333 110.981 4.1 110.861 4.22C110.755 4.32667 110.575 4.38 110.321 4.38H104.801V5.92H108.701C108.955 5.92 109.135 5.98 109.241 6.1C109.361 6.20667 109.421 6.38667 109.421 6.64V8.78C109.421 9.03333 109.361 9.22 109.241 9.34C109.135 9.44667 108.955 9.5 108.701 9.5H104.801V11.22H110.321C110.575 11.22 110.755 11.28 110.861 11.4C110.981 11.5067 111.041 11.6867 111.041 11.94V14.28C111.041 14.5333 110.981 14.72 110.861 14.84C110.755 14.9467 110.575 15 110.321 15ZM122.89 15H118.01C116.343 15 115.103 14.6667 114.29 14C113.49 13.3333 113.09 12.3067 113.09 10.92V4.7C113.09 3.31333 113.49 2.28667 114.29 1.62C115.103 0.939999 116.343 0.599999 118.01 0.599999H122.89C123.143 0.599999 123.323 0.659999 123.43 0.779999C123.55 0.886666 123.61 1.06667 123.61 1.32V3.74C123.61 3.99333 123.55 4.18 123.43 4.3C123.323 4.40667 123.143 4.46 122.89 4.46H118.87C118.456 4.46 118.15 4.54667 117.95 4.72C117.75 4.88 117.65 5.12667 117.65 5.46V10.22C117.65 10.5533 117.75 10.8 117.95 10.96C118.15 11.1067 118.456 11.18 118.87 11.18H122.89C123.143 11.18 123.323 11.24 123.43 11.36C123.55 11.4667 123.61 11.6467 123.61 11.9V14.28C123.61 14.5333 123.55 14.72 123.43 14.84C123.323 14.9467 123.143 15 122.89 15ZM132.668 15H129.428C129.175 15 128.988 14.9467 128.868 14.84C128.762 14.72 128.708 14.5333 128.708 14.28V4.46H125.768C125.515 4.46 125.328 4.40667 125.208 4.3C125.102 4.18 125.048 3.99333 125.048 3.74V1.32C125.048 1.06667 125.102 0.886666 125.208 0.779999C125.328 0.659999 125.515 0.599999 125.768 0.599999H136.328C136.582 0.599999 136.762 0.659999 136.868 0.779999C136.988 0.886666 137.048 1.06667 137.048 1.32V3.74C137.048 3.99333 136.988 4.18 136.868 4.3C136.762 4.40667 136.582 4.46 136.328 4.46H133.388V14.28C133.388 14.5333 133.328 14.72 133.208 14.84C133.102 14.9467 132.922 15 132.668 15Z" fill="black"/>
</svg>
