<svg width="438" height="49" viewBox="0 0 438 49" fill="none" xmlns="http://www.w3.org/2000/svg">
<path d="M24.288 48H2.72C1.90933 48 1.312 47.8293 0.928 47.488C0.586667 47.104 0.416 46.5067 0.416 45.696V4.224C0.416 3.41333 0.586667 2.83733 0.928 2.496C1.312 2.112 1.90933 1.92 2.72 1.92H24.288C29.6213 1.92 33.568 2.98667 36.128 5.12C38.7307 7.25333 40.032 10.5387 40.032 14.976V34.944C40.032 39.3813 38.7307 42.6667 36.128 44.8C33.568 46.9333 29.6213 48 24.288 48ZM14.944 14.144V35.904H22.56C23.584 35.904 24.3307 35.648 24.8 35.136C25.312 34.624 25.568 33.8347 25.568 32.768V17.216C25.568 16.1493 25.312 15.3813 24.8 14.912C24.3307 14.4 23.584 14.144 22.56 14.144H14.944ZM80.166 48H50.47C49.6593 48 49.062 47.8293 48.678 47.488C48.3367 47.104 48.166 46.5067 48.166 45.696V4.224C48.166 3.41333 48.3367 2.83733 48.678 2.496C49.062 2.112 49.6593 1.92 50.47 1.92H80.166C80.9767 1.92 81.5527 2.112 81.894 2.496C82.278 2.83733 82.47 3.41333 82.47 4.224V11.712C82.47 12.5227 82.278 13.12 81.894 13.504C81.5527 13.8453 80.9767 14.016 80.166 14.016H62.502V18.944H74.982C75.7927 18.944 76.3687 19.136 76.71 19.52C77.094 19.8613 77.286 20.4373 77.286 21.248V28.096C77.286 28.9067 77.094 29.504 76.71 29.888C76.3687 30.2293 75.7927 30.4 74.982 30.4H62.502V35.904H80.166C80.9767 35.904 81.5527 36.096 81.894 36.48C82.278 36.8213 82.47 37.3973 82.47 38.208V45.696C82.47 46.5067 82.278 47.104 81.894 47.488C81.5527 47.8293 80.9767 48 80.166 48ZM117.305 48H100.665C99.8543 48 99.1717 47.8507 98.617 47.552C98.105 47.2533 97.6997 46.6987 97.401 45.888L91.129 30.208C90.745 29.2693 90.425 28.4587 90.169 27.776C89.913 27.0507 89.6997 26.368 89.529 25.728C89.3583 25.088 89.2303 24.4267 89.145 23.744C89.1023 23.0187 89.081 22.144 89.081 21.12V4.224C89.081 3.41333 89.2517 2.83733 89.593 2.496C89.977 2.112 90.5743 1.92 91.385 1.92H101.561C102.372 1.92 102.99 2.112 103.417 2.496C103.844 2.83733 104.057 3.41333 104.057 4.224V21.888C104.057 22.3147 104.1 22.7413 104.185 23.168C104.27 23.5947 104.398 24.0427 104.569 24.512L107.577 33.472C107.705 33.8987 107.854 34.1973 108.025 34.368C108.196 34.496 108.452 34.56 108.793 34.56H109.497C109.838 34.56 110.094 34.496 110.265 34.368C110.436 34.1973 110.585 33.8987 110.713 33.472L113.721 24.448C113.892 23.9787 114.02 23.5307 114.105 23.104C114.19 22.6773 114.233 22.2507 114.233 21.824V4.224C114.233 3.41333 114.404 2.83733 114.745 2.496C115.129 2.112 115.726 1.92 116.537 1.92H126.585C127.396 1.92 127.972 2.112 128.313 2.496C128.697 2.83733 128.889 3.41333 128.889 4.224V21.12C128.889 22.144 128.846 23.0187 128.761 23.744C128.718 24.4267 128.612 25.088 128.441 25.728C128.27 26.368 128.057 27.0507 127.801 27.776C127.545 28.4587 127.225 29.2693 126.841 30.208L120.569 45.888C120.27 46.6987 119.844 47.2533 119.289 47.552C118.777 47.8507 118.116 48 117.305 48ZM167.447 48H151.831C146.498 48 142.53 46.9333 139.927 44.8C137.367 42.6667 136.087 39.3813 136.087 34.944V15.04C136.087 10.6027 137.367 7.31733 139.927 5.184C142.53 3.008 146.498 1.92 151.831 1.92H167.447C168.258 1.92 168.834 2.112 169.175 2.496C169.559 2.83733 169.751 3.41333 169.751 4.224V11.968C169.751 12.7787 169.559 13.376 169.175 13.76C168.834 14.1013 168.258 14.272 167.447 14.272H154.583C153.26 14.272 152.279 14.5493 151.639 15.104C150.999 15.616 150.679 16.4053 150.679 17.472V32.704C150.679 33.7707 150.999 34.56 151.639 35.072C152.279 35.5413 153.26 35.776 154.583 35.776H167.447C168.258 35.776 168.834 35.968 169.175 36.352C169.559 36.6933 169.751 37.2693 169.751 38.08V45.696C169.751 46.5067 169.559 47.104 169.175 47.488C168.834 47.8293 168.258 48 167.447 48ZM215.706 35.904C215.706 37.8667 215.407 39.6587 214.81 41.28C214.255 42.8587 213.231 44.224 211.738 45.376C210.287 46.4853 208.261 47.36 205.658 48C203.098 48.64 199.834 48.96 195.866 48.96C191.898 48.96 188.613 48.64 186.01 48C183.407 47.36 181.359 46.4853 179.866 45.376C178.415 44.224 177.391 42.8587 176.794 41.28C176.239 39.6587 175.962 37.8667 175.962 35.904V14.08C175.962 12.1173 176.239 10.3467 176.794 8.768C177.391 7.14666 178.415 5.76 179.866 4.608C181.359 3.456 183.407 2.56 186.01 1.92C188.613 1.28 191.898 0.959999 195.866 0.959999C199.834 0.959999 203.098 1.28 205.658 1.92C208.261 2.56 210.287 3.456 211.738 4.608C213.231 5.76 214.255 7.14666 214.81 8.768C215.407 10.3467 215.706 12.1173 215.706 14.08V35.904ZM190.49 33.6C190.49 34.4533 190.81 35.1787 191.45 35.776C192.09 36.3307 193.562 36.608 195.866 36.608C198.17 36.608 199.642 36.3307 200.282 35.776C200.922 35.1787 201.242 34.4533 201.242 33.6V16.384C201.242 15.5733 200.922 14.8907 200.282 14.336C199.642 13.7387 198.17 13.44 195.866 13.44C193.562 13.44 192.09 13.7387 191.45 14.336C190.81 14.8907 190.49 15.5733 190.49 16.384V33.6ZM235.758 48H226.158C225.347 48 224.75 47.8293 224.366 47.488C224.024 47.104 223.854 46.5067 223.854 45.696V4.224C223.854 3.41333 224.024 2.83733 224.366 2.496C224.75 2.112 225.347 1.92 226.158 1.92H232.814C233.624 1.92 234.307 2.048 234.862 2.304C235.459 2.56 236.035 3.008 236.59 3.648L249.006 17.856V4.224C249.006 3.41333 249.176 2.83733 249.518 2.496C249.902 2.112 250.499 1.92 251.31 1.92H260.91C261.72 1.92 262.296 2.112 262.638 2.496C263.022 2.83733 263.214 3.41333 263.214 4.224V45.696C263.214 46.5067 263.022 47.104 262.638 47.488C262.296 47.8293 261.72 48 260.91 48H251.31C250.499 48 249.902 47.8293 249.518 47.488C249.176 47.104 249.006 46.5067 249.006 45.696V37.824L238.062 24.576V45.696C238.062 46.5067 237.87 47.104 237.486 47.488C237.144 47.8293 236.568 48 235.758 48ZM283.945 48H274.345C273.534 48 272.937 47.8293 272.553 47.488C272.212 47.104 272.041 46.5067 272.041 45.696V4.224C272.041 3.41333 272.212 2.83733 272.553 2.496C272.937 2.112 273.534 1.92 274.345 1.92H281.001C281.812 1.92 282.494 2.048 283.049 2.304C283.646 2.56 284.222 3.008 284.777 3.648L297.193 17.856V4.224C297.193 3.41333 297.364 2.83733 297.705 2.496C298.089 2.112 298.686 1.92 299.497 1.92H309.097C309.908 1.92 310.484 2.112 310.825 2.496C311.209 2.83733 311.401 3.41333 311.401 4.224V45.696C311.401 46.5067 311.209 47.104 310.825 47.488C310.484 47.8293 309.908 48 309.097 48H299.497C298.686 48 298.089 47.8293 297.705 47.488C297.364 47.104 297.193 46.5067 297.193 45.696V37.824L286.249 24.576V45.696C286.249 46.5067 286.057 47.104 285.673 47.488C285.332 47.8293 284.756 48 283.945 48ZM352.229 48H322.533C321.722 48 321.125 47.8293 320.741 47.488C320.399 47.104 320.229 46.5067 320.229 45.696V4.224C320.229 3.41333 320.399 2.83733 320.741 2.496C321.125 2.112 321.722 1.92 322.533 1.92H352.229C353.039 1.92 353.615 2.112 353.957 2.496C354.341 2.83733 354.533 3.41333 354.533 4.224V11.712C354.533 12.5227 354.341 13.12 353.957 13.504C353.615 13.8453 353.039 14.016 352.229 14.016H334.565V18.944H347.045C347.855 18.944 348.431 19.136 348.773 19.52C349.157 19.8613 349.349 20.4373 349.349 21.248V28.096C349.349 28.9067 349.157 29.504 348.773 29.888C348.431 30.2293 347.855 30.4 347.045 30.4H334.565V35.904H352.229C353.039 35.904 353.615 36.096 353.957 36.48C354.341 36.8213 354.533 37.3973 354.533 38.208V45.696C354.533 46.5067 354.341 47.104 353.957 47.488C353.615 47.8293 353.039 48 352.229 48ZM392.447 48H376.831C371.498 48 367.53 46.9333 364.927 44.8C362.367 42.6667 361.087 39.3813 361.087 34.944V15.04C361.087 10.6027 362.367 7.31733 364.927 5.184C367.53 3.008 371.498 1.92 376.831 1.92H392.447C393.258 1.92 393.834 2.112 394.175 2.496C394.559 2.83733 394.751 3.41333 394.751 4.224V11.968C394.751 12.7787 394.559 13.376 394.175 13.76C393.834 14.1013 393.258 14.272 392.447 14.272H379.583C378.26 14.272 377.279 14.5493 376.639 15.104C375.999 15.616 375.679 16.4053 375.679 17.472V32.704C375.679 33.7707 375.999 34.56 376.639 35.072C377.279 35.5413 378.26 35.776 379.583 35.776H392.447C393.258 35.776 393.834 35.968 394.175 36.352C394.559 36.6933 394.751 37.2693 394.751 38.08V45.696C394.751 46.5067 394.559 47.104 394.175 47.488C393.834 47.8293 393.258 48 392.447 48ZM423.739 48H413.371C412.56 48 411.963 47.8293 411.579 47.488C411.237 47.104 411.067 46.5067 411.067 45.696V14.272H401.659C400.848 14.272 400.251 14.1013 399.867 13.76C399.525 13.376 399.355 12.7787 399.355 11.968V4.224C399.355 3.41333 399.525 2.83733 399.867 2.496C400.251 2.112 400.848 1.92 401.659 1.92H435.451C436.261 1.92 436.837 2.112 437.179 2.496C437.563 2.83733 437.755 3.41333 437.755 4.224V11.968C437.755 12.7787 437.563 13.376 437.179 13.76C436.837 14.1013 436.261 14.272 435.451 14.272H426.043V45.696C426.043 46.5067 425.851 47.104 425.467 47.488C425.125 47.8293 424.549 48 423.739 48Z" fill="white"/>
</svg>
